<svg width="872" height="873" xmlns="http://www.w3.org/2000/svg" xmlns:xlink="http://www.w3.org/1999/xlink" xml:space="preserve" overflow="hidden"><g transform="translate(-1650 -1180)"><path d="M1650 1616.5C1650 1375.43 1845.2 1180 2086 1180 2326.8 1180 2522 1375.43 2522 1616.5 2522 1857.57 2326.8 2053 2086 2053 1845.2 2053 1650 1857.57 1650 1616.5Z" fill-rule="evenodd"/><path d="M1870.93 1770.86 2086.43 1399.86 2301.93 1770.86Z" stroke="#FFFFFF" stroke-width="31.7354" stroke-miterlimit="8" fill="none" fill-rule="evenodd"/><path d="M2012.93 1770.72 2172.93 1770.72" stroke="#000000" stroke-width="45.8333" stroke-miterlimit="8" fill="none" fill-rule="evenodd"/><path d="M2001.93 1775.86 2114.93 1662.86" stroke="#FFFFFF" stroke-width="31.7354" stroke-miterlimit="8" fill="#FFFFFF" fill-rule="evenodd"/><path d="M1983.93 1765.36C1983.93 1750.73 1995.79 1738.86 2010.43 1738.86 2025.06 1738.86 2036.93 1750.73 2036.93 1765.36 2036.93 1780 2025.06 1791.86 2010.43 1791.86 1995.79 1791.86 1983.93 1780 1983.93 1765.36Z" fill="#FFFFFF" fill-rule="evenodd"/></g></svg>