<?xml version="1.0" encoding="UTF-8" standalone="no"?>
<!DOCTYPE svg PUBLIC "-//W3C//DTD SVG 1.1//EN"
 "http://www.w3.org/Graphics/SVG/1.1/DTD/svg11.dtd">
<!-- Generated by graphviz version 9.0.0 (20230911.1827)
 -->
<!-- Title: finite_state_machine Pages: 1 -->
<svg width="1793pt" height="413pt"
 viewBox="0.00 0.00 1793.35 412.96" xmlns="http://www.w3.org/2000/svg" xmlns:xlink="http://www.w3.org/1999/xlink">
<g id="graph0" class="graph" transform="scale(1 1) rotate(0) translate(4 408.96)">
<title>finite_state_machine</title>
<polygon fill="black" stroke="none" points="-4,4 -4,-408.96 1789.35,-408.96 1789.35,4 -4,4"/>
<!-- SPI_TRANS_IDLE -->
<g id="node1" class="node">
<title>SPI_TRANS_IDLE</title>
<ellipse fill="black" stroke="white" cx="94.34" cy="-94.34" rx="94.34" ry="94.34"/>
<text text-anchor="middle" x="94.34" y="-89.29" font-family="Helvetica,Arial,sans-serif" font-size="14.00" fill="white">SPI_TRANS_IDLE</text>
</g>
<!-- SPI_TRANS_IDLE&#45;&gt;SPI_TRANS_IDLE -->
<g id="edge2" class="edge">
<title>SPI_TRANS_IDLE&#45;&gt;SPI_TRANS_IDLE</title>
<path fill="none" stroke="white" d="M58.04,-181.95C63.12,-196.59 75.22,-206.69 94.34,-206.69 108.69,-206.69 119.08,-201.01 125.52,-191.99"/>
<polygon fill="white" stroke="white" points="128.53,-193.8 129.96,-183.3 122.3,-190.62 128.53,-193.8"/>
<text text-anchor="middle" x="94.34" y="-209.89" font-family="Helvetica,Arial,sans-serif" font-size="14.00" fill="white">wdr</text>
</g>
<!-- SPI_TRANS_READ -->
<g id="node2" class="node">
<title>SPI_TRANS_READ</title>
<ellipse fill="black" stroke="white" cx="516.15" cy="-205.34" rx="99.46" ry="99.46"/>
<text text-anchor="middle" x="516.15" y="-200.29" font-family="Helvetica,Arial,sans-serif" font-size="14.00" fill="white">SPI_TRANS_READ</text>
</g>
<!-- SPI_TRANS_IDLE&#45;&gt;SPI_TRANS_READ -->
<g id="edge1" class="edge">
<title>SPI_TRANS_IDLE&#45;&gt;SPI_TRANS_READ</title>
<path fill="none" stroke="white" d="M185.92,-118.29C251.35,-135.59 339.96,-159.02 408.76,-177.21"/>
<polygon fill="white" stroke="white" points="407.61,-180.53 418.17,-179.7 409.4,-173.76 407.61,-180.53"/>
<text text-anchor="middle" x="302.69" y="-175.54" font-family="Helvetica,Arial,sans-serif" font-size="14.00" fill="white">!wdr_empty &amp;&amp; SPI_CR_SPE</text>
</g>
<!-- SPI_TRANS_DELAY -->
<g id="node3" class="node">
<title>SPI_TRANS_DELAY</title>
<ellipse fill="black" stroke="white" cx="756.68" cy="-263.34" rx="104.07" ry="104.07"/>
<text text-anchor="middle" x="756.68" y="-258.29" font-family="Helvetica,Arial,sans-serif" font-size="14.00" fill="white">SPI_TRANS_DELAY</text>
</g>
<!-- SPI_TRANS_READ&#45;&gt;SPI_TRANS_DELAY -->
<g id="edge3" class="edge">
<title>SPI_TRANS_READ&#45;&gt;SPI_TRANS_DELAY</title>
<path fill="none" stroke="white" d="M613.14,-228.68C623.31,-231.16 633.72,-233.69 644.05,-236.2"/>
<polygon fill="white" stroke="white" points="643.2,-239.59 653.74,-238.56 644.85,-232.79 643.2,-239.59"/>
</g>
<!-- SPI_TRANS_BUFFER -->
<g id="node4" class="node">
<title>SPI_TRANS_BUFFER</title>
<ellipse fill="black" stroke="white" cx="1091.98" cy="-270.34" rx="111.23" ry="111.23"/>
<text text-anchor="middle" x="1091.98" y="-265.29" font-family="Helvetica,Arial,sans-serif" font-size="14.00" fill="white">SPI_TRANS_BUFFER</text>
</g>
<!-- SPI_TRANS_DELAY&#45;&gt;SPI_TRANS_BUFFER -->
<g id="edge4" class="edge">
<title>SPI_TRANS_DELAY&#45;&gt;SPI_TRANS_BUFFER</title>
<path fill="none" stroke="white" d="M860.85,-265.51C895.1,-266.23 933.55,-267.04 969.07,-267.78"/>
<polygon fill="white" stroke="white" points="968.9,-271.28 978.97,-267.99 969.05,-264.28 968.9,-271.28"/>
</g>
<!-- SPI_TRANS_COUNT -->
<g id="node5" class="node">
<title>SPI_TRANS_COUNT</title>
<ellipse fill="black" stroke="white" cx="1346.33" cy="-264.34" rx="106.11" ry="106.11"/>
<text text-anchor="middle" x="1346.33" y="-259.29" font-family="Helvetica,Arial,sans-serif" font-size="14.00" fill="white">SPI_TRANS_COUNT</text>
</g>
<!-- SPI_TRANS_BUFFER&#45;&gt;SPI_TRANS_COUNT -->
<g id="edge5" class="edge">
<title>SPI_TRANS_BUFFER&#45;&gt;SPI_TRANS_COUNT</title>
<path fill="none" stroke="white" d="M1203.66,-267.71C1211.95,-267.51 1220.32,-267.32 1228.64,-267.12"/>
<polygon fill="white" stroke="white" points="1228.51,-270.62 1238.43,-266.89 1228.35,-263.62 1228.51,-270.62"/>
</g>
<!-- SPI_TRANS_COUNT&#45;&gt;SPI_TRANS_COUNT -->
<g id="edge7" class="edge">
<title>SPI_TRANS_COUNT&#45;&gt;SPI_TRANS_COUNT</title>
<path fill="none" stroke="white" d="M1326.53,-368.92C1330.23,-380.78 1336.83,-388.46 1346.33,-388.46 1352.7,-388.46 1357.77,-384.99 1361.54,-379.12"/>
<polygon fill="white" stroke="white" points="1364.6,-380.86 1365.5,-370.3 1358.21,-377.99 1364.6,-380.86"/>
<text text-anchor="middle" x="1346.33" y="-391.66" font-family="Helvetica,Arial,sans-serif" font-size="14.00" fill="white">cnt != maxcnt</text>
</g>
<!-- SPI_TRANS_WRITE -->
<g id="node6" class="node">
<title>SPI_TRANS_WRITE</title>
<ellipse fill="black" stroke="white" cx="1680.77" cy="-124.34" rx="104.58" ry="104.58"/>
<text text-anchor="middle" x="1680.77" y="-119.29" font-family="Helvetica,Arial,sans-serif" font-size="14.00" fill="white">SPI_TRANS_WRITE</text>
</g>
<!-- SPI_TRANS_COUNT&#45;&gt;SPI_TRANS_WRITE -->
<g id="edge6" class="edge">
<title>SPI_TRANS_COUNT&#45;&gt;SPI_TRANS_WRITE</title>
<path fill="none" stroke="white" d="M1444.38,-223.47C1484.92,-206.4 1532.16,-186.51 1573.62,-169.04"/>
<polygon fill="white" stroke="white" points="1574.78,-172.35 1582.64,-165.25 1572.06,-165.9 1574.78,-172.35"/>
<text text-anchor="middle" x="1514.32" y="-213.54" font-family="Helvetica,Arial,sans-serif" font-size="14.00" fill="white">cnt == maxcnt</text>
</g>
<!-- SPI_TRANS_WRITE&#45;&gt;SPI_TRANS_IDLE -->
<g id="edge9" class="edge">
<title>SPI_TRANS_WRITE&#45;&gt;SPI_TRANS_IDLE</title>
<path fill="none" stroke="white" d="M1578.06,-102.89C1512.5,-90.9 1425.26,-78.34 1347.33,-78.34 515.15,-78.34 515.15,-78.34 515.15,-78.34 407.76,-78.34 285.04,-83.64 200.14,-88.13"/>
<polygon fill="white" stroke="white" points="199.99,-84.64 190.19,-88.67 200.36,-91.63 199.99,-84.64"/>
<text text-anchor="middle" x="920.74" y="-81.54" font-family="Helvetica,Arial,sans-serif" font-size="14.00" fill="white">cnt != maxcnt</text>
</g>
<!-- SPI_TRANS_WRITE&#45;&gt;SPI_TRANS_READ -->
<g id="edge8" class="edge">
<title>SPI_TRANS_WRITE&#45;&gt;SPI_TRANS_READ</title>
<path fill="none" stroke="white" d="M1575.7,-124.34C1510.17,-124.34 1423.8,-124.34 1347.33,-124.34 755.68,-124.34 755.68,-124.34 755.68,-124.34 708,-124.34 657.68,-139.03 615.6,-155.9"/>
<polygon fill="white" stroke="white" points="614.41,-152.61 606.49,-159.65 617.07,-159.08 614.41,-152.61"/>
<text text-anchor="middle" x="1091.98" y="-127.54" font-family="Helvetica,Arial,sans-serif" font-size="14.00" fill="white">!wdr_empty</text>
</g>
</g>
</svg>
