<svg width="438" height="518" viewBox="0 0 328.5 388.5" xmlns="http://www.w3.org/2000/svg" xmlns:xlink="http://www.w3.org/1999/xlink">
<g id="graph0" class="graph" transform="translate(2.230256187712765,243.82302145424603) scale(0.5575640469281913)">
<title>finite_state_machine</title>
<polygon fill="white" stroke="transparent" points="-4,4 -4,-181.82 585.17,-181.82 585.17,4 -4,4"/>
<!-- 0 -->
<g id="node1" class="node">
<title>IDLE</title>
<ellipse fill="none" stroke="black" cx="33.02" cy="-33.02000000000001" rx="33.05" ry="33.05"/>
<text text-anchor="middle" x="33.02" y="-28.819999999999993" font-family="Helvetica,Arial,sans-serif" font-size="14.00">IDLE</text>
</g>
<!-- 2 -->
<g id="node2" class="node">
<title>START</title>
<ellipse fill="none" stroke="black" cx="227.09" cy="-87.02" rx="41.74" ry="41.74"/>
<text text-anchor="middle" x="227.09" y="-82.82" font-family="Helvetica,Arial,sans-serif" font-size="14.00">START</text>
</g><g id="edge2" class="edge">
<title>IDLE-&gt;IDLE</title>
<path fill="none" stroke="black" d="M15.98,-61.36C14.58,-73.58 20.27,-84.05 33.02,-84.05 41.99,-84.05 47.47,-78.87 49.44,-71.55"/>
<polygon fill="black" stroke="black" points="52.95,-71.55 50.07,-61.36 45.96,-71.12 52.95,-71.55"/>
</g>
<!-- 0&#45;&gt;2 -->
<g id="edge1" class="edge">
<title>IDLE-&gt;START</title>
<path fill="none" stroke="black" d="M65.31,-41.82C95.5,-50.31 141.66,-63.28 176.79,-73.16"/>
<polygon fill="black" stroke="black" points="176.27,-76.65 186.84,-75.99 178.16,-69.91 176.27,-76.65"/>
<text text-anchor="middle" x="125.76" y="-74.22" font-family="Helvetica,Arial,sans-serif" font-size="14.00">cycle_cnt == 1</text>
</g>
<!-- IDLE&#45;&gt;START -->

<!-- IDLE&#45;&gt;START -->

<!-- IDLE&#45;&gt;START -->
<g id="node4" class="node">
<title>WAIT1</title>
<ellipse fill="none" stroke="black" cx="383.87" cy="-86.02" rx="41.14" ry="41.14"/>
<text text-anchor="middle" x="383.87" y="-81.82" font-family="Helvetica,Arial,sans-serif" font-size="14.00">WAIT1</text>
</g>
<!-- IDLE&#45;&gt;START -->
<g id="node3" class="node">
<title>WAIT2</title>
<ellipse fill="none" stroke="black" cx="540.1" cy="-86.02" rx="41.14" ry="41.14"/>
<text text-anchor="middle" x="540.1" y="-81.82" font-family="Helvetica,Arial,sans-serif" font-size="14.00">WAIT2</text>
</g>
<!-- START&#45;&gt;WAIT2 -->
<!-- START&#45;&gt;WAIT2 -->
<g id="edge3" class="edge">
<title>START-&gt;WAIT2</title>
<path fill="none" stroke="black" d="M260.61,-112.33C282.49,-127.7 312.75,-145.89 342.8,-154.02 378.04,-163.56 389.74,-163.71 424.94,-154.02 451.53,-146.71 478.17,-131.4 499.03,-117.15"/>
<polygon fill="black" stroke="black" points="501.12,-119.96 507.3,-111.35 497.11,-114.23 501.12,-119.96"/>
<text text-anchor="middle" x="383.87" y="-165.22" font-family="Helvetica,Arial,sans-serif" font-size="14.00">hready</text>
</g><g id="edge4" class="edge">
<title>START-&gt;WAIT1</title>
<path fill="none" stroke="black" d="M268.76,-86.76C288.3,-86.64 311.9,-86.48 332.56,-86.35"/>
<polygon fill="black" stroke="black" points="332.77,-89.85 342.75,-86.28 332.72,-82.85 332.77,-89.85"/>
</g>
<g id="edge5" class="edge">
<title>WAIT1-&gt;WAIT2</title>
<path fill="none" stroke="black" d="M424.99,-86.02C444.46,-86.02 468.05,-86.02 488.72,-86.02"/>
<polygon fill="black" stroke="black" points="488.91,-89.52 498.91,-86.02 488.91,-82.52 488.91,-89.52"/>
<text text-anchor="middle" x="461.99" y="-90.22" font-family="Helvetica,Arial,sans-serif" font-size="14.00">hready</text>
</g><g id="edge7" class="edge">
<title>WAIT2-&gt;IDLE</title>
<path fill="none" stroke="black" d="M503.85,-66.13C481.9,-54.89 452.66,-41.94 424.94,-36.02 300.31,-9.43 148.2,-20.23 75.97,-27.88"/>
<polygon fill="black" stroke="black" points="75.47,-24.42 65.91,-28.98 76.23,-31.37 75.47,-24.42"/>
<text text-anchor="middle" x="305.76" y="-27.22" font-family="Helvetica,Arial,sans-serif" font-size="14.00">hready</text>
</g>
<!-- WAIT1&#45;&gt;WAIT2 -->
<g id="edge6" class="edge">
<title>WAIT1-&gt;WAIT1</title>
<path fill="none" stroke="black" d="M369.28,-124.66C369.71,-136.15 374.58,-145.09 383.87,-145.09 390.12,-145.09 394.36,-141.06 396.61,-134.92"/>
<polygon fill="black" stroke="black" points="400.13,-135.12 398.46,-124.66 393.24,-133.87 400.13,-135.12"/>
</g><g id="edge8" class="edge">
<title>WAIT2-&gt;WAIT2</title>
<path fill="none" stroke="black" d="M525.51,-124.66C525.94,-136.15 530.81,-145.09 540.1,-145.09 546.34,-145.09 550.59,-141.06 552.83,-134.92"/>
<polygon fill="black" stroke="black" points="556.35,-135.12 554.69,-124.66 549.46,-133.87 556.35,-135.12"/>
</g>
<!-- WAIT1&#45;&gt;WAIT1 -->

<!-- WAIT1&#45;&gt;WAIT1 -->

</g>
</svg>