<?xml version="1.0" encoding="UTF-8" standalone="no"?>
<!DOCTYPE svg PUBLIC "-//W3C//DTD SVG 1.1//EN"
 "http://www.w3.org/Graphics/SVG/1.1/DTD/svg11.dtd">
<!-- Generated by graphviz version 9.0.0 (20230911.1827)
 -->
<!-- Title: finite_state_machine Pages: 1 -->
<svg width="1213pt" height="361pt"
 viewBox="0.00 0.00 1212.86 360.84" xmlns="http://www.w3.org/2000/svg" xmlns:xlink="http://www.w3.org/1999/xlink">
<g id="graph0" class="graph" transform="scale(1 1) rotate(0) translate(4 356.84)">
<title>finite_state_machine</title>
<polygon fill="black" stroke="none" points="-4,4 -4,-356.84 1208.86,-356.84 1208.86,4 -4,4"/>
<!-- APB_TRANS_IDLE -->
<g id="node1" class="node">
<title>APB_TRANS_IDLE</title>
<ellipse fill="black" stroke="white" cx="97.93" cy="-109.19" rx="97.93" ry="97.93"/>
<text text-anchor="middle" x="97.93" y="-104.14" font-family="Helvetica,Arial,sans-serif" font-size="14.00" fill="white">APB_TRANS_IDLE</text>
</g>
<!-- APB_TRANS_IDLE&#45;&gt;APB_TRANS_IDLE -->
<g id="edge3" class="edge">
<title>APB_TRANS_IDLE&#45;&gt;APB_TRANS_IDLE</title>
<path fill="none" stroke="white" d="M70.5,-203.34C75.02,-216.39 84.16,-225.11 97.93,-225.11 107.82,-225.11 115.33,-220.61 120.44,-213.23"/>
<polygon fill="white" stroke="white" points="123.37,-215.21 124.68,-204.7 117.1,-212.1 123.37,-215.21"/>
<text text-anchor="middle" x="97.93" y="-228.31" font-family="Helvetica,Arial,sans-serif" font-size="14.00" fill="white">!psel</text>
</g>
<!-- APB_TRANS_READ -->
<g id="node2" class="node">
<title>APB_TRANS_READ</title>
<ellipse fill="black" stroke="white" cx="430.9" cy="-242.19" rx="103.04" ry="103.04"/>
<text text-anchor="middle" x="430.9" y="-237.14" font-family="Helvetica,Arial,sans-serif" font-size="14.00" fill="white">APB_TRANS_READ</text>
</g>
<!-- APB_TRANS_IDLE&#45;&gt;APB_TRANS_READ -->
<g id="edge1" class="edge">
<title>APB_TRANS_IDLE&#45;&gt;APB_TRANS_READ</title>
<path fill="none" stroke="white" d="M189.36,-145.53C231.09,-162.3 280.9,-182.31 324.34,-199.77"/>
<polygon fill="white" stroke="white" points="322.95,-202.98 333.54,-203.46 325.56,-196.49 322.95,-202.98"/>
<text text-anchor="middle" x="261.85" y="-194.39" font-family="Helvetica,Arial,sans-serif" font-size="14.00" fill="white">read SPI_RDR</text>
</g>
<!-- APB_TRANS_READY -->
<g id="node3" class="node">
<title>APB_TRANS_READY</title>
<ellipse fill="black" stroke="white" cx="1095.68" cy="-109.19" rx="109.19" ry="109.19"/>
<text text-anchor="middle" x="1095.68" y="-104.14" font-family="Helvetica,Arial,sans-serif" font-size="14.00" fill="white">APB_TRANS_READY</text>
</g>
<!-- APB_TRANS_IDLE&#45;&gt;APB_TRANS_READY -->
<g id="edge2" class="edge">
<title>APB_TRANS_IDLE&#45;&gt;APB_TRANS_READY</title>
<path fill="none" stroke="white" d="M196.22,-109.19C379.47,-109.19 775.3,-109.19 974.71,-109.19"/>
<polygon fill="white" stroke="white" points="974.58,-112.69 984.58,-109.19 974.58,-105.69 974.58,-112.69"/>
<text text-anchor="middle" x="634.06" y="-112.39" font-family="Helvetica,Arial,sans-serif" font-size="14.00" fill="white">write or read any other reg</text>
</g>
<!-- APB_TRANS_DELAY -->
<g id="node4" class="node">
<title>APB_TRANS_DELAY</title>
<ellipse fill="black" stroke="white" cx="841.84" cy="-245.19" rx="107.65" ry="107.65"/>
<text text-anchor="middle" x="841.84" y="-240.14" font-family="Helvetica,Arial,sans-serif" font-size="14.00" fill="white">APB_TRANS_DELAY</text>
</g>
<!-- APB_TRANS_READ&#45;&gt;APB_TRANS_DELAY -->
<g id="edge5" class="edge">
<title>APB_TRANS_READ&#45;&gt;APB_TRANS_DELAY</title>
<path fill="none" stroke="white" d="M534.3,-242.94C591.42,-243.36 662.83,-243.88 722.36,-244.32"/>
<polygon fill="white" stroke="white" points="722.17,-247.82 732.2,-244.39 722.23,-240.82 722.17,-247.82"/>
</g>
<!-- APB_TRANS_READY&#45;&gt;APB_TRANS_IDLE -->
<g id="edge4" class="edge">
<title>APB_TRANS_READY&#45;&gt;APB_TRANS_IDLE</title>
<path fill="none" stroke="white" d="M986.27,-105.53C980.26,-105.39 974.3,-105.28 968.49,-105.19 633.14,-99.87 549.2,-99.35 213.85,-105.19 211.77,-105.22 209.67,-105.26 207.55,-105.3"/>
<polygon fill="white" stroke="white" points="207.54,-101.8 197.62,-105.53 207.7,-108.8 207.54,-101.8"/>
</g>
<!-- APB_TRANS_DELAY&#45;&gt;APB_TRANS_READY -->
<g id="edge6" class="edge">
<title>APB_TRANS_DELAY&#45;&gt;APB_TRANS_READY</title>
<path fill="none" stroke="white" d="M936.97,-194.35C953.91,-185.21 971.66,-175.62 988.9,-166.31"/>
<polygon fill="white" stroke="white" points="990.51,-169.42 997.65,-161.58 987.19,-163.26 990.51,-169.42"/>
</g>
</g>
</svg>
